<svg width="124" height="20" viewBox="0 0 124 20" xmlns="http://www.w3.org/2000/svg" xmlns:xlink="http://www.w3.org/1999/xlink">
    <defs>
        <path id="a" d="M0 0h124v20H0z"/>
        <path id="c" d="M0 0h24.738v18.531H0z"/>
        <path id="e" d="M0 0h92.594v18.531H0z"/>
    </defs>
    <g fill="none" fill-rule="evenodd">
        <mask id="b" fill="#fff">
            <use xlink:href="#a"/>
        </mask>
        <g mask="url(#b)">
            <g transform="translate(0 1.469)">
                <mask id="d" fill="#fff">
                    <use xlink:href="#c"/>
                </mask>
                <path d="M2.846 18.531c1.722 0 2.776-1.018 3.936-2.351.773-.878 1.51-.808 2.178.105.773 1.088 1.792 2.246 3.409 2.246 1.616 0 2.635-1.158 3.408-2.246.668-.913 1.406-.983 2.179-.105 1.16 1.333 2.214 2.351 3.936 2.351 1.58 0 2.846-1.369 2.846-3.896C24.738 8.81 20.345 0 16.41 0c-2.144 0-2.74 2.246-4.041 2.246C11.069 2.246 10.47 0 8.328 0 4.392 0 0 8.81 0 14.635c0 2.527 1.265 3.896 2.846 3.896" fill="#0068FF" mask="url(#d)"/>
            </g>
        </g>
        <g mask="url(#b)">
            <g transform="translate(31.406)">
                <mask id="f" fill="#fff">
                    <use xlink:href="#e"/>
                </mask>
                <path d="M57.94 18.22h3.628v-6.798c0-1.656 1.002-2.312 2.142-2.312 1.244 0 2.108.76 2.108 2.312v6.798h3.559v-6.798c0-1.656 1.105-2.312 2.245-2.312 1.244 0 2.108.76 2.108 2.312v6.798h3.593v-7.557c0-3.106-2.108-4.935-5.01-4.935-1.555 0-3.04.794-3.731 1.864-.691-1.173-1.935-1.864-3.455-1.864-1.175 0-2.557.484-3.559 1.83V5.9H57.94v12.32zm-21.352 0h3.628v-6.453c0-1.863 1.037-2.657 2.453-2.657 1.52 0 2.453.932 2.453 2.657v6.453h3.628v-6.97c0-3.417-2.073-5.522-5.113-5.522-1.348 0-2.66.69-3.42 1.83V5.9h-3.629v12.32zM0 18.22h3.628v-6.798c0-1.656 1.002-2.312 2.142-2.312 1.244 0 2.107.76 2.107 2.312v6.798h3.559v-6.798c0-1.656 1.106-2.312 2.246-2.312 1.244 0 2.107.76 2.107 2.312v6.798h3.594v-7.557c0-3.106-2.108-4.935-5.01-4.935-1.555 0-3.075.794-3.766 1.864-.795-1.139-1.935-1.864-3.42-1.864-1.175 0-2.557.484-3.56 1.83V5.9H0v12.32zm51.514 0h3.662V5.9h-3.662v12.32zm1.831-13.94c1.21 0 2.142-.933 2.142-2.14 0-1.208-.933-2.14-2.142-2.14-1.21 0-2.142.932-2.142 2.14 0 1.207.933 2.14 2.142 2.14zm32.58 14.251c3.836 0 6.669-2.795 6.669-6.453 0-3.658-2.833-6.453-6.668-6.453-3.87 0-6.668 2.795-6.668 6.453 0 3.658 2.798 6.453 6.668 6.453zm0-3.244c-1.761 0-3.109-1.38-3.109-3.21 0-1.828 1.348-3.208 3.11-3.208 1.762 0 3.11 1.38 3.11 3.209 0 1.829-1.348 3.21-3.11 3.21zm-57.94 3.244c3.836 0 6.669-2.795 6.669-6.453 0-3.658-2.833-6.453-6.669-6.453-3.87 0-6.668 2.795-6.668 6.453 0 3.658 2.799 6.453 6.668 6.453zm0-3.244c-1.762 0-3.109-1.38-3.109-3.21 0-1.828 1.347-3.208 3.11-3.208 1.761 0 3.109 1.38 3.109 3.209 0 1.829-1.348 3.21-3.11 3.21z" fill="#000" mask="url(#f)"/>
            </g>
        </g>
    </g>
</svg>
